{"title":"Planet of the Apes(2001)MPEG-4[DaScubaDude]","uid":14786990,"size":1311215802,"categoryP":"video","categoryS":"movies","magnet":"?xt=urn:btih:59658d2823cf49b355925f20e24dcaf61d5dc510&amp;dn=Planet+of+the+Apes%282001%29MPEG-4%5BDaScubaDude%5D&amp;tr=udp%3A%2F%2Ftracker.leechers-paradise.org%3A6969&amp;tr=udp%3A%2F%2Fzer0day.ch%3A1337&amp;tr=udp%3A%2F%2Fopen.demonii.com%3A1337&amp;tr=udp%3A%2F%2Ftracker.coppersurfer.tk%3A6969&amp;tr=udp%3A%2F%2Fexodus.desync.com%3A6969","seeders":0,"leechers":1,"uploader":"dascuba","files":1,"time":1465026924,"description":"Planet of the Apes (2001)\r\nPG-13 | 1h 59min | Action, Adventure, Sci-Fi | 27 July 2001 (USA)\r\nAn Air Force astronaut crash lands on a mysterious planet where evolved, talking apes dominate a race of primitive humans.\r\nDirector: Tim Burton\r\nWriters: Pierre Boulle (novel), William Broyles Jr. (screenplay) |\r\nStars: Mark Wahlberg, Helena Bonham Carter, Tim Roth | \r\n\r\nGeneral\r\nComplete name                            : Planet of the Apes(2001)PLANET_OF_THE_APES_Title1.mp4\r\nFormat                                   : MPEG-4\r\nFormat profile                           : Base Media\r\nCodec ID                                 : isom (isom/iso2/avc1/mp41)\r\nFile size                                : 1.22 GiB\r\nDuration                                 : 1h 59mn\r\nOverall bit rate                         : 1 458 Kbps\r\nMovie name                               : PLANET_OF_THE_APES\r\nGenre                                    : Science_Fiction\r\nWriting application                      : Lavf54.6.100\r\n\r\nVideo\r\nID                                       : 1\r\nFormat                                   : AVC\r\nFormat/Info                              : Advanced Video Codec\r\nFormat profile                           :   \r\nFormat settings, CABAC                   : No\r\nFormat settings, ReFrames                : 6 frames\r\nCodec ID                                 : avc1\r\nCodec ID/Info                            : Advanced Video Coding\r\nDuration                                 : 1h 59mn\r\nBit rate                                 : 1 203 Kbps\r\nWidth                                    : 720 pixels\r\nHeight                                   : 404 pixels\r\nDisplay aspect ratio                     : 16:9\r\nFrame rate mode                          : Constant\r\nFrame rate                               : 29.970 (30000/1001) fps\r\nColor space                              : YUV\r\nChroma subsampling                       : 4:2:0\r\nBit depth                                : 8 bits\r\nScan type                                : Progressive\r\nBits/(Pixel*Frame)                       : 0.138\r\nStream size                              : 1.01 GiB (83%)\r\n\r\nAudio\r\nID                                       : 2\r\nFormat                                   : AAC\r\nFormat/Info                              : Advanced Audio Codec\r\nFormat profile                           : LC\r\nCodec ID                                 : 40\r\nDuration                                 : 1h 59mn\r\nBit rate mode                            : Constant\r\nBit rate                                 : 248 Kbps\r\nChannel(s)                               : 2 channels\r\nChannel(s)_Original                      : 6 channels\r\nChannel positions                        : Front: L C R, Side: L R, LFE\r\nSampling rate                            : 44.1 KHz\r\nFrame rate                               : 43.066 fps (1024 spf)\r\nCompression mode                         : Lossy\r\nStream size                              : 213 MiB (17%)\r\nDefault                                  : Yes\r\nAlternate group                          : 1","torrent":{"xt":"urn:btih:59658d2823cf49b355925f20e24dcaf61d5dc510","amp;dn":"Planet+of+the+Apes%282001%29MPEG-4%5BDaScubaDude%5D","amp;tr":["udp%3A%2F%2Ftracker.leechers-paradise.org%3A6969","udp%3A%2F%2Fzer0day.ch%3A1337","udp%3A%2F%2Fopen.demonii.com%3A1337","udp%3A%2F%2Ftracker.coppersurfer.tk%3A6969","udp%3A%2F%2Fexodus.desync.com%3A6969"],"infoHash":"59658d2823cf49b355925f20e24dcaf61d5dc510","infoHashBuffer":{"type":"Buffer","data":[89,101,141,40,35,207,73,179,85,146,95,32,226,77,202,246,29,93,197,16]},"announce":[],"urlList":[]}}